<svg width="210" height="160" viewBox="0 0 210 160" fill="none" xmlns="http://www.w3.org/2000/svg"><path opacity="0.2" d="M111 92.0001C64.4999 57.5002 25.9997 123 32.0697 157H179.5C187 120 151.383 121.961 111 92.0001Z" fill="#07955F"/><path fill-rule="evenodd" clip-rule="evenodd" d="M105 22C89.6446 22 74.2893 27.8145 62.5735 39.4434C50.8803 51.05 45.0225 66.2553 45 81.4676V81.6435C45.0225 96.8558 50.8803 112.061 62.5735 123.668C66.8291 127.892 71.565 131.349 76.6066 134.038C76.7603 134.12 85.9342 139.181 96.651 145.094L86.9114 150.488L88.1169 147.354L80.8921 143.368L76.033 156H93.5817C97.1083 154.054 101.031 151.89 105 149.7C108.969 151.89 112.892 154.054 116.418 156H133.968L110.397 94.7238C113.689 92.8598 115.909 89.3428 115.909 85.3111C115.909 79.3309 111.025 74.4829 105 74.4829C98.9751 74.4829 94.0909 79.3309 94.0909 85.3111C94.0909 89.343 96.3109 92.8602 99.6038 94.7241L95.0566 106.545L88.2864 124.238L95.4769 128.22L105 103.463L116.736 133.97L105 140.47L79.7727 126.498C75.6821 124.233 71.835 121.375 68.359 117.925C48.1227 97.8388 48.1227 65.2723 68.359 45.186C78.4771 35.1428 91.7386 30.1212 105 30.1212C118.261 30.1212 131.523 35.1428 141.641 45.186C161.877 65.2723 161.877 97.8388 141.641 117.925C138.165 121.375 134.318 124.233 130.227 126.498L129.37 126.973L132.316 134.631C132.985 134.263 133.363 134.055 133.393 134.038C138.435 131.349 143.171 127.892 147.426 123.668C159.12 112.061 164.978 96.8558 165 81.6435V81.4676C164.978 66.2553 159.12 51.05 147.426 39.4434C135.711 27.8145 120.355 22 105 22ZM113.349 145.094L119.672 141.605L123.09 150.488L113.349 145.094Z" fill="#07955F"/><path d="M105 40.9494C94.5304 40.9494 84.0609 44.9138 76.0728 52.8427C60.0968 68.7003 60.0968 94.4107 76.0728 110.268C78.6774 112.854 81.5459 115.017 84.5921 116.76L87.5553 109.049C85.5331 107.782 83.6202 106.275 81.8583 104.526C69.0775 91.8396 69.0775 71.2714 81.8583 58.5852C88.2487 52.2422 96.6243 49.0706 105 49.0707C113.376 49.0706 121.751 52.2422 128.142 58.5852C140.923 71.2714 140.923 91.8396 128.142 104.526C126.387 106.268 124.482 107.77 122.469 109.034L125.435 116.744C128.471 115.004 131.33 112.846 133.927 110.268C149.903 94.4107 149.903 68.7003 133.927 52.8427C125.939 44.9138 115.47 40.9494 105 40.9494Z" fill="#07955F"/><path fill-rule="evenodd" clip-rule="evenodd" d="M19 158C19 156.895 19.8954 156 21 156H189C190.105 156 191 156.895 191 158C191 159.105 190.105 160 189 160H21C19.8954 160 19 159.105 19 158Z" fill="#07955F"/><path fill-rule="evenodd" clip-rule="evenodd" d="M194.5 18.5169C193.85 17.8669 192.8 17.8669 192.15 18.5169L184 26.6502L175.85 18.5002C175.2 17.8502 174.15 17.8502 173.5 18.5002C172.85 19.1502 172.85 20.2002 173.5 20.8502L181.65 29.0002L173.5 37.1502C172.85 37.8002 172.85 38.8502 173.5 39.5002C174.15 40.1502 175.2 40.1502 175.85 39.5002L184 31.3502L192.15 39.5002C192.8 40.1502 193.85 40.1502 194.5 39.5002C195.15 38.8502 195.15 37.8002 194.5 37.1502L186.35 29.0002L194.5 20.8502C195.133 20.2169 195.133 19.1502 194.5 18.5169Z" fill="#07955F"/><path fill-rule="evenodd" clip-rule="evenodd" d="M25.3996 100.613C24.8796 100.093 24.0396 100.093 23.5196 100.613L16.9996 107.12L10.4796 100.6C9.95963 100.08 9.11963 100.08 8.59963 100.6C8.07963 101.12 8.07963 101.96 8.59963 102.48L15.1196 109L8.59963 115.52C8.07963 116.04 8.07963 116.88 8.59963 117.4C9.11963 117.92 9.95963 117.92 10.4796 117.4L16.9996 110.88L23.5196 117.4C24.0396 117.92 24.8796 117.92 25.3996 117.4C25.9196 116.88 25.9196 116.04 25.3996 115.52L18.8796 109L25.3996 102.48C25.9063 101.973 25.9063 101.12 25.3996 100.613Z" fill="#07955F"/></svg>